# xmcd CD database file
#
# Track frame offsets:
#	150
#	37526
#	65818
#	82327
#	124192
#
# Disc length: 2175 seconds
#
# Revision: 1
# Processed by: cddbd v1.5.2PL0 Copyright (c) Steve Scherf et al.
# Submitted via: CDex 1.70beta3
#
DISCID=3f087d05
DTITLE=Chick Corea - The Cool Jazz Collection 75
DYEAR=1900
DGENRE=Jazz
TTITLE0=Autumn Leaves
TTITLE1=Someday My Prince Will Come
TTITLE2=It Could Happen to You
TTITLE3=On Green Dolphin Sterrt
TTITLE4='Round Midnight
EXTD=
EXTT0=
EXTT1=
EXTT2=
EXTT3=
EXTT4=
PLAYORDER=
